<svg xmlns="http://www.w3.org/2000/svg" class="asf-icon__item" preserveAspectRatio="xMidYMid slice" style="--width:1.5rem;--height:1.5rem" viewBox="0 0 595.3 841.9"><path fill="currentColor" d="m370.2 395.8 111.3-78.1-14.6-20.9-109.4 76.8-59.6-103.7-60 104.3-110.3-77.4-14.6 20.9 112.1 78.7L157.6 514 113 545.2l14.6 20.9-4.1 7.1h348.7l-4.6-8 13.9-19.9-42.6-29.9-68.7-119.6zm19.4 84.9-70.2-49.3 29.8-20.9 40.4 70.2zm-212.7 50.8L297.3 447l122.3 85.9 8.5 14.8H167.6l9.3-16.2zm69.2-120.4 29 20.3-68.2 47.9 39.2-68.2zm90.4-22.7L297.2 416l-38.4-27 39-67.9 38.7 67.3z"/></svg>