<svg xmlns="http://www.w3.org/2000/svg" class="asf-icon__item" preserveAspectRatio="none" style="--width:1rem;--height:1rem" viewBox="0 0 24 24"><path fill="currentColor" d="M22.5 0h-21C.75 0 0 .75 0 1.5v21c0 .75.75 1.5 1.5 1.5h21c.75 0 1.5-.75 1.5-1.5v-21c0-.75-.75-1.5-1.5-1.5ZM2.667 21.333V2.667h18.666v18.666H2.667Zm4-16C7.403 5.333 8 5.93 8 6.667v10.666a1.333 1.333 0 1 1-2.667 0V6.667c0-.737.597-1.334 1.334-1.334Zm3.333 0c.368 0 .667.299.667.667v12a.667.667 0 0 1-1.334 0V6c0-.368.299-.667.667-.667Zm4.667 1.334a1.333 1.333 0 0 0-2.667 0v10.666a1.333 1.333 0 1 0 2.667 0V6.667Zm2.666-1.334c.737 0 1.334.597 1.334 1.334v10.666a1.333 1.333 0 0 1-2.667 0V6.667c0-.737.597-1.334 1.333-1.334Z"/></svg>