<svg xmlns="http://www.w3.org/2000/svg" class="asf-icon__item" preserveAspectRatio="xMidYMid slice" style="--width:1.5rem;--height:1.5rem" viewBox="0 0 595.3 841.9"><path fill="currentColor" d="m434.5 340.8 47-33-14.6-20.8-47.1 33c-29.1-34.9-73-57.2-121.9-57.2-49.2 0-93.3 22.5-122.4 57.8l-48-33.7-14.5 21 48 33.7c-13.8 23.5-21.7 50.9-21.7 80.1 0 29.2 7.9 56.6 21.7 80.1l-48 33.7 14.6 20.9 48-33.7c29.1 35.3 73.2 57.8 122.4 57.8 48.9 0 92.7-22.2 121.9-57.2l47.1 33.1 14.6-20.9-47-33c14.1-23.7 22.2-51.3 22.2-80.8-.1-29.6-8.2-57.2-22.3-80.9zm-20.9 146.9-94.2-66.1 94.2-66.1c11.2 19.5 17.6 42 17.6 66.1 0 24.1-6.5 46.6-17.6 66.1zm-217.1 20.2 100.7-70.7 101.6 71.3c-24.5 28.4-60.6 46.4-100.9 46.4-40.5 0-76.9-18.3-101.4-47zm-14.6-151.7 93.2 65.4-93.2 65.4c-10.9-19.3-17.2-41.6-17.2-65.4 0-23.7 6.3-46 17.2-65.4zm216.9-21.4-101.6 71.3-100.7-70.7c24.5-28.7 60.8-47 101.4-47 40.3 0 76.5 18 100.9 46.4z"/></svg>