<svg xmlns="http://www.w3.org/2000/svg" class="asf-icon__item" preserveAspectRatio="xMidYMid slice" style="--width:1.5rem;--height:1.5rem" viewBox="0 0 595.3 841.9"><path fill="currentColor" d="M508.6 253.9h-25.9l-9 51.2c-5.7-1.5-9.6-5.7-15.5-12.5-7.9-9.1-18.8-21.7-39.5-21.7s-31.6 12.5-39.5 21.7c-7.5 8.6-11.8 13.1-20.8 13.1s-13.3-4.5-20.8-13.1c-7.9-9.1-18.8-21.7-39.5-21.7s-31.6 12.5-39.5 21.7c-7.5 8.6-11.8 13.1-20.8 13.1s-13.3-4.5-20.8-13.1c-7.9-9.1-18.8-21.7-39.5-21.7s-31.6 12.5-39.5 21.7c-6.3 7.3-10.4 11.6-16.8 12.8l-9-51.5h-26l49.6 283.5H459l49.6-283.5zm-39.1 75.5-31.9 182.4H157.3l-31.9-182.1c15.5-2.8 24.5-13.1 31.3-21 7.5-8.6 11.8-13.1 20.8-13.1s13.3 4.5 20.8 13.1c7.9 9.1 18.8 21.7 39.5 21.7s31.6-12.5 39.5-21.7c7.5-8.6 11.8-13.1 20.8-13.1s13.3 4.5 20.8 13.1c7.9 9.1 18.8 21.7 39.5 21.7s31.6-12.5 39.5-21.7c7.5-8.6 11.8-13.1 20.8-13.1s13.3 4.5 20.8 13.1c6.7 7.7 15.3 17.6 30 20.7zm-93.3 93.1c0-23.9-6.1-54.6-36.3-54.6-30.2 0-36.3 30.8-36.3 54.6s6.1 54.6 36.3 54.6c30.1 0 36.3-30.8 36.3-54.6zm-17.1 0c0 21.9-4.2 40.3-19.2 40.3s-19.2-18.5-19.2-40.3c0-21.9 4.2-40.4 19.2-40.4s19.2 18.5 19.2 40.4zm-86.1-3.8v-.3c10.1-3.6 14.9-12 14.9-22.5 0-18.6-16.8-28-33.2-28-21.1 0-33.9 15.3-34.8 35.7H237c-.3-10.8 5.6-21.5 17.4-21.5 9.5 0 16.3 6 16.3 14.9 0 12.9-11.8 16.9-23.2 16.5v12.8c13.5-.6 27.4 1.5 27.4 17.8 0 12-8.7 18.8-20.1 18.8-13.4 0-20.3-9.6-19.8-22.4h-17.1c.4 21.9 12.6 36.6 36.9 36.6 20.1 0 37.2-12.3 37.2-32.1 0-13.5-7.2-23.9-19-26.3zm187.4 144.2H135.8v25.5h324.6v-25.5z"/></svg>