<svg xmlns="http://www.w3.org/2000/svg" class="asf-icon__item" preserveAspectRatio="xMidYMid slice" style="--width:1.5rem;--height:1.5rem" viewBox="0 0 595.3 841.9"><path fill="currentColor" d="m508.4 562.4-76.5-283.5h-241v25.5h221.4l26.8 99.2H240.5c-51.1 0-69.2 22.3-89.3 53.9-7.8 12.3-36.7 58.8-53.1 85.4L86 562.4h422.4zM446 429.1l29.1 107.7H131.8c15.9-25.6 34.8-56.1 40.9-65.7 17.6-27.6 28.6-42 67.8-42H446zM359.3 483c0-9.4-7.6-17-17-17s-17 7.6-17 17 7.6 17 17 17 17-7.6 17-17zm-59.5 0c0-9.4-7.6-17-17-17s-17 7.6-17 17 7.6 17 17 17 17-7.6 17-17z"/></svg>