<svg xmlns="http://www.w3.org/2000/svg" class="asf-icon__item" preserveAspectRatio="none" style="--width:1.25rem;--height:1.25rem" viewBox="0 0 24 24"><path fill="currentColor" d="M20 21H4V9h1v1a1 1 0 1 0 2 0V9l10 .026V10a1 1 0 1 0 2 0v-.964l1.016.006L20 21ZM12.047 3c2.414.013 4.5 1.72 4.953 4H7c.477-2.277 2.633-4.013 5.047-4ZM20 7h-1c-.47-3.389-3.423-5.98-6.942-6C8.538.981 5.505 3.616 5 7H4c-1.104-.006-1.994.896-2 2v12c-.006 1.104.896 1.994 2 2h16c1.104.006 1.994-.896 2-2V9c.006-1.104-.896-1.994-2-2Z" class="asf-icon__outlined"/></svg>