<svg xmlns="http://www.w3.org/2000/svg" class="asf-icon__item" preserveAspectRatio="none" style="--width:1.75rem;--height:1.75rem" viewBox="0 0 72 72"><path fill="#1d1d1b" d="M72 36A36 36 0 1 1 36 0a36 36 0 0 1 36 36"/><path fill="#fff" d="M30.23 49.13h-7a4.67 4.67 0 0 1-4-7l2.3-4a.89.89 0 0 1 1.21-.32l.72.41a.81.81 0 0 0 1.21-.7v-7.88a.81.81 0 0 0-1.21-.7l-6.86 3.94a.81.81 0 0 0 0 1.4l.72.41a.88.88 0 0 1 .32 1.21l-2.31 4a9.13 9.13 0 0 0 7.91 13.69h7.06a2.23 2.23 0 0 0 2.23-2.27 2.27 2.27 0 0 0-2.3-2.19" class="cls-4"/><path fill="none" d="M30.23 49.13h-7a4.67 4.67 0 0 1-4-7l2.3-4a.89.89 0 0 1 1.21-.32l.72.41a.81.81 0 0 0 1.21-.7v-7.88a.81.81 0 0 0-1.21-.7l-6.86 3.94a.81.81 0 0 0 0 1.4l.72.41a.88.88 0 0 1 .32 1.21l-2.31 4a9.13 9.13 0 0 0 7.91 13.69h7.06a2.23 2.23 0 0 0 2.23-2.27 2.27 2.27 0 0 0-2.3-2.19Z" class="cls-5"/><path fill="#fff" d="m58 39.9-3.53-6.12A2.252 2.252 0 0 0 50.55 36l3.53 6.12a4.67 4.67 0 0 1-4 7h-4.65a.89.89 0 0 1-.89-.89v-.82a.81.81 0 0 0-1.21-.7l-6.83 3.95a.82.82 0 0 0 0 1.4L43.33 56a.81.81 0 0 0 1.21-.7v-.82a.89.89 0 0 1 .89-.89H50a9.13 9.13 0 0 0 8-13.69" class="cls-4"/><path fill="none" d="m58 39.9-3.53-6.12A2.252 2.252 0 0 0 50.55 36l3.53 6.12a4.67 4.67 0 0 1-4 7h-4.65a.89.89 0 0 1-.89-.89v-.82a.81.81 0 0 0-1.21-.7l-6.83 3.95a.82.82 0 0 0 0 1.4L43.33 56a.81.81 0 0 0 1.21-.7v-.82a.89.89 0 0 1 .89-.89H50a9.13 9.13 0 0 0 8-13.69Z" class="cls-5"/><path fill="#fff" d="M48.07 21a.9.9 0 0 1-1.22-.33l-2.3-4a9.13 9.13 0 0 0-15.82 0L25.2 22.8a2.24 2.24 0 0 0 .8 3.05 2.22 2.22 0 0 0 3-.82l3.54-6.11a4.67 4.67 0 0 1 8.09 0l2.3 4a.88.88 0 0 1-.32 1.21l-.72.42a.81.81 0 0 0 0 1.39l6.83 3.94a.81.81 0 0 0 1.28-.7v-7.89a.81.81 0 0 0-1.21-.7Z" class="cls-4"/><path fill="none" d="M48.07 21a.9.9 0 0 1-1.22-.33l-2.3-4a9.13 9.13 0 0 0-15.82 0L25.2 22.8a2.24 2.24 0 0 0 .8 3.05 2.22 2.22 0 0 0 3-.82l3.54-6.11a4.67 4.67 0 0 1 8.09 0l2.3 4a.88.88 0 0 1-.32 1.21l-.72.42a.81.81 0 0 0 0 1.39l6.83 3.94a.81.81 0 0 0 1.28-.7v-7.89a.81.81 0 0 0-1.21-.7Z" class="cls-5"/><path fill="#fff" d="M37 40.34s4.23-2.62 4.84-5.21-2.31-4.71-4.84-2.46c-2.55-2.25-5.45-.15-4.84 2.46S37 40.34 37 40.34" class="cls-4"/></svg>