<svg xmlns="http://www.w3.org/2000/svg" class="asf-icon__item" preserveAspectRatio="xMidYMid slice" style="--width:1.5rem;--height:1.5rem" viewBox="0 0 595.3 841.9"><path fill="currentColor" d="M439.5 562.4V278.9H156v283.5h283.5zM414 536.8H181.5V304.4H414v232.4zM181.5 420.6c0 64.1 52.1 116.2 116.2 116.2S414 484.7 414 420.6s-52.1-116.2-116.2-116.2-116.3 52.1-116.3 116.2zm25.5 0c0-50 40.7-90.7 90.7-90.7s90.7 40.7 90.7 90.7-40.7 90.7-90.7 90.7-90.7-40.7-90.7-90.7zm73.7 0c0 9.4 7.6 17 17 17s17-7.6 17-17-7.6-17-17-17-17 7.6-17 17z"/></svg>