<svg xmlns="http://www.w3.org/2000/svg" class="asf-icon__item" preserveAspectRatio="xMidYMid slice" style="--width:1.5rem;--height:1.5rem" viewBox="0 0 595.3 841.9"><path fill="currentColor" d="m439.7 337.1 41.8-29.4-14.6-20.9-27.2 19.1v-26.1H156.2v27l-28.6-20.1-14.6 21 43.2 30.4v167.1L113 535.6l14.6 20.9 28.6-20.1v27h283.5v-26.1l27.2 19.1 14.6-20.9-41.8-29.4v-169zm-25.5 151.1L399.6 478c9.3-16.7 14.6-35.9 14.6-56.3s-5.3-39.6-14.6-56.3l14.6-10.3v133.1zM217 380.8l58.1 40.8-58.1 40.9c-6.2-12.3-9.8-26.2-9.8-40.8s3.6-28.6 9.8-40.9zm80.3 56.4 66.5 46.8c-16.5 17.5-39.9 28.4-65.8 28.4-26.2 0-49.8-11.2-66.4-29l65.7-46.2zm-65.7-77.3c16.6-17.8 40.2-29 66.4-29 25.9 0 49.3 10.9 65.8 28.4L297.3 406l-65.7-46.1zm146.9 20.2c6.5 12.5 10.1 26.6 10.1 41.6s-3.7 29.1-10.1 41.6l-59.1-41.6 59.1-41.6zM181.7 518.4l28.8-20.3c21.3 24.3 52.6 39.7 87.4 39.7 34.5 0 65.5-15.1 86.9-39.1l29.4 20.6v18.5H181.7v-19.4zm0-162.4 14.2 10c-9.1 16.5-14.2 35.5-14.2 55.6s5.2 39.1 14.2 55.6l-14.2 10V356zm232.5-32.1-29.4 20.6c-21.3-24-52.3-39.1-86.9-39.1-34.8 0-66.1 15.4-87.4 39.7l-28.8-20.3v-19.5h232.4v18.6h.1z"/></svg>