<svg width="96" height="28" viewBox="0 0 96 28" fill="none" xmlns="http://www.w3.org/2000/svg">
  <path fill-rule="evenodd" clip-rule="evenodd" d="M27.7212 2.70647C24.1665 2.70647 23.0161 4.59795 22.6168 5.39742C22.4464 5.73921 22.7341 5.66391 22.8234 5.61468C24.2196 4.89921 25.2751 4.52844 26.6852 4.52844C30.036 4.52844 32.3955 8.12604 32.3955 14.0612C32.3955 19.3041 30.1617 25.3899 25.4147 25.3899C21.1089 25.3899 18.6684 19.9356 18.6684 14.5739C18.6684 11.1154 19.2268 8.05653 20.623 5.5944C21.5026 4.02153 22.5526 2.8484 24.348 2.02866C24.8311 1.80272 26.1156 1.41168 27.9362 1.51016C28.1728 1.51016 28.4346 1.21888 28.5339 1.10838L28.5478 1.09305C28.66 0.964617 28.7609 0.82599 28.8493 0.678834C28.8493 0.678834 28.9666 0.487656 28.8102 0.426828C27.9738 0.130359 27.0943 -0.0137011 26.2105 0.00102492C18.0624 0.00102492 15.0187 8.43018 15.0187 14.3451C15.0187 20.625 18.3919 27.6 25.1327 27.6C31.125 27.6 35.484 20.9812 35.484 14.0409C35.4867 9.33681 33.8196 2.70647 27.7212 2.70647ZM14.0797 23.3883C13.0382 23.3883 12.4043 24.0893 12.4043 25.161C12.3974 25.3912 12.4373 25.6203 12.5213 25.8335C12.6053 26.0466 12.7316 26.2391 12.892 26.3983C13.0523 26.5576 13.2432 26.6801 13.4521 26.7578C13.6611 26.8356 13.8835 26.8669 14.1049 26.8497C15.381 26.8497 15.7803 25.8128 15.7803 25.1118C15.7552 24.1646 15.3168 23.3883 14.0797 23.3883ZM95.397 11.0545C95.5374 11.0696 95.6766 11.0967 95.8131 11.1356C95.865 11.1543 95.9103 11.1885 95.9436 11.2338C95.9769 11.2791 95.9964 11.3336 96 11.3905C95.9619 11.635 95.8605 11.8642 95.7069 12.0539C95.3328 12.6042 94.7379 13.4442 94.4112 13.8961C94.362 13.9659 94.3059 14.03 94.2438 14.0873C94.1808 14.1413 94.104 14.1755 94.023 14.1858C93.9519 14.1966 93.8799 14.2033 93.8079 14.206C89.3553 14.3879 88.7274 19.2104 88.5849 20.304L88.5834 20.315C88.5066 20.949 88.4748 21.588 88.4886 22.2268V25.3957L88.4883 25.4004C88.4661 25.7429 88.4481 26.019 88.1703 26.1314C87.7872 26.2264 87.3942 26.2722 87.0003 26.2676C86.6223 26.2952 86.2425 26.245 85.8834 26.1198C85.5294 25.9594 85.5201 25.6612 85.5087 25.3019L85.5078 25.2756C85.5075 25.2607 85.5069 25.2457 85.5063 25.2306V21.5779C85.5063 21.5779 83.0463 26.6296 78.1011 26.4674C72.7497 26.2933 72.3147 20.6047 72.2718 20.0409C72.2697 20.0142 72.2685 19.9988 72.2676 19.9964C71.1699 19.7984 70.1151 19.3971 69.1542 18.8117C69.1455 18.8395 69.1308 18.8892 69.1107 18.9581C68.7732 20.1099 66.8631 26.6325 63.6756 26.6325C61.2333 26.6325 59.8062 22.8614 59.4096 21.8131C59.4003 21.7886 59.3913 21.7651 59.3832 21.7436C59.3787 21.7313 59.3742 21.7196 59.3697 21.7083C59.367 21.6999 59.3592 21.7129 59.334 21.7549L59.3307 21.7604C57.1749 25.4333 54.9411 26.6847 53.5449 26.6847C51.2106 26.6847 50.3841 23.985 50.2305 22.4933C49.5855 23.7041 46.7679 26.7108 43.9029 26.7108C40.6833 26.7108 39.396 22.7482 39.1167 21.8299C37.9467 22.5988 36.6789 23.1945 35.3499 23.5998C35.2893 23.6154 35.2278 23.6261 35.1657 23.6316C35.0622 23.6316 35.0232 23.6229 34.9926 23.5505C34.9617 23.4781 35.0289 23.3275 35.0289 23.3275C35.2104 22.8814 35.5398 22.0095 35.5566 21.9603C35.5926 21.8571 35.6424 21.7596 35.7045 21.6706C35.745 21.6194 35.7942 21.5762 35.8497 21.5432C35.9148 21.5017 35.9829 21.4659 36.0537 21.436C37.0176 21.054 37.9254 20.5344 38.751 19.8921C38.7369 19.8428 38.7369 19.8023 38.7369 19.782C38.4216 17.8506 38.2599 15.8956 38.2539 13.9367C38.2539 7.9899 39.6027 1.61733 43.8945 1.61733C47.3097 1.61733 47.7648 5.4264 47.7258 7.93485C47.6115 15.1583 44.0367 18.4652 42.2328 20.1343L42.2301 20.1366C42.1962 20.168 42.1629 20.1988 42.1302 20.229C42.117 20.2414 42.1038 20.2536 42.0906 20.2658C42.0516 20.3005 42.0321 20.3324 42.0321 20.3324C42.3867 21.6996 43.0707 24.2747 45.0114 24.2486C46.6647 24.2196 49.2978 21.7459 49.9428 19.3244C49.9428 19.3244 50.127 18.8174 50.127 16.2105V13.3921C50.1234 13.2852 50.145 13.179 50.1897 13.0826C50.2344 12.9862 50.3013 12.9026 50.3841 12.8388C51.1455 12.3395 51.9312 11.8812 52.7379 11.4658C52.8063 11.422 52.8852 11.3988 52.9656 11.3988C53.046 11.3988 53.1246 11.422 53.193 11.4658C53.2467 11.5196 53.2887 11.5847 53.316 11.6566C53.3436 11.7285 53.3559 11.8057 53.3523 11.8829C53.4114 12.4673 53.3328 14.3201 53.2815 15.5328C53.2602 16.0393 53.2434 16.4342 53.2434 16.5784C53.2413 17.0546 53.232 17.5085 53.223 17.9567C53.2086 18.6753 53.1945 19.379 53.2098 20.1354C53.1987 20.9947 53.2596 21.8534 53.3913 22.7018C53.3934 22.7126 53.3958 22.7251 53.3982 22.739C53.4651 23.1026 53.7186 24.4793 54.9663 24.0748C56.181 23.6867 58.3254 21.1492 58.5405 18.4727C58.5405 18.4727 58.3533 14.7361 58.3533 13.5167C58.3386 13.3227 58.3509 13.1276 58.3896 12.9373C58.4046 12.8768 58.4313 12.82 58.4676 12.7703C58.5042 12.7205 58.5498 12.6788 58.602 12.6476C59.0823 12.3116 60.5313 11.3789 61.0368 11.153C61.1076 11.1184 61.1847 11.0997 61.263 11.098C61.4724 11.0864 61.587 11.2834 61.5786 11.5788C61.575 11.7004 61.5669 11.8269 61.5585 11.9574C61.5465 12.1438 61.5339 12.3382 61.5339 12.5376C61.1904 21.2912 63.7539 23.7533 64.3737 23.7533C65.7447 23.7533 66.7779 20.625 67.2972 18.8609C67.4403 18.4687 67.5615 18.0683 67.6602 17.6617C67.6491 17.5489 67.6041 17.4426 67.5318 17.3576C66.7086 16.261 66.2352 14.9255 66.1776 13.5369C66.1386 12.8504 66.4428 12.1349 67.3533 11.4572C67.8306 11.1038 68.6376 10.5563 69.0984 10.5563C69.2712 10.5529 69.4389 10.6187 69.5661 10.7401C69.6936 10.8614 69.771 11.029 69.7824 11.208C70.0674 12.6506 69.7686 15.8774 69.6987 16.4712C69.6819 16.5421 69.6834 16.6164 69.7032 16.6865C69.7227 16.7567 69.7596 16.8203 69.8106 16.8709C70.5576 17.4987 71.4093 17.9789 72.3237 18.2874C72.3243 18.2748 72.3243 18.2623 72.3237 18.2497C72.6027 14.7738 74.4987 10.8112 78.5088 10.8112C81.3849 10.8112 82.4487 12.8939 82.4487 14.7014C82.4487 17.9282 79.461 20.0369 75.5319 20.1731C75.4398 20.176 75.3534 20.1789 75.384 20.3208C75.6186 21.4447 76.4088 24.1067 79.014 24.1067C80.4354 24.1067 81.7758 23.6171 83.5797 21.4621C84.2109 20.6628 84.7185 19.7668 85.0848 18.8059C85.2762 18.3371 85.3869 17.8371 85.4115 17.3286C85.4115 17.3286 85.4841 16.3843 85.47 14.5855C85.4679 14.4418 85.4625 14.2192 85.4562 13.9727C85.4457 13.5585 85.4337 13.0764 85.4337 12.7896C85.4364 12.1987 86.9751 11.2805 87.8352 10.9473C88.3266 10.7591 88.4382 11.376 88.4607 11.544C88.5669 12.3871 88.5033 14.0849 88.461 15.2134C88.4409 15.7479 88.4256 16.1554 88.4355 16.2829L88.416 16.6566C88.4172 16.6545 88.4223 16.6427 88.431 16.6221C88.6425 16.1293 91.0227 10.5791 95.397 11.0545ZM44.0034 3.83904C41.8422 3.83904 41.4399 10.1392 41.4399 12.9721C41.4264 14.6142 41.5281 16.2551 41.7444 17.8818C44.2602 15.5559 45.5475 11.7092 45.5475 7.98411C45.5475 5.75661 45.2991 3.83904 44.0034 3.83904ZM78.4557 13.0735C75.8895 13.0735 75.2415 16.5436 75.1941 18.4032C75.1914 18.5374 75.2592 18.5393 75.3573 18.5422L75.3618 18.5423C78.9135 18.3627 80.1786 16.5929 80.2623 15.243C80.3376 14.0496 79.7541 13.0735 78.4557 13.0735ZM52.1484 9.51642C52.596 9.52971 53.0304 9.35913 53.3574 9.04176C53.6841 8.72442 53.877 8.28597 53.8938 7.8219C53.8629 7.3623 53.6655 6.93189 53.3406 6.61758C53.016 6.30327 52.5885 6.12846 52.1442 6.12846C51.7002 6.12846 51.2727 6.30327 50.9478 6.61758C50.6232 6.93189 50.4255 7.3623 50.3949 7.8219C50.4117 8.28753 50.6055 8.7273 50.9343 9.04491C51.2628 9.36252 51.6996 9.53205 52.1484 9.51642ZM9.83277 11.8047C10.0436 11.9123 10.2478 12.0332 10.4443 12.1668C10.5084 12.212 10.565 12.2678 10.6118 12.3319C10.6236 12.3504 10.6299 12.3721 10.6299 12.3942C10.6299 12.4163 10.6236 12.438 10.6118 12.4565C10.5826 12.5075 10.5469 12.5543 10.5057 12.5955C10.0949 13.0479 9.64635 13.4618 9.16539 13.8324C9.11376 13.8665 9.05343 13.8836 8.99226 13.8816C8.92833 13.8679 8.86761 13.8413 8.81355 13.8034L8.45055 13.563C7.76277 13.1347 6.9795 12.8991 6.17757 12.8794C4.30947 12.8794 3.80964 13.8961 3.72306 14.5507C3.6777 14.8888 3.7233 15.2333 3.85488 15.5462C3.98646 15.859 4.19886 16.128 4.46862 16.3235C4.94115 16.6421 5.43582 16.9238 5.94858 17.1664C6.04251 17.2097 6.13908 17.2539 6.23772 17.299C7.49118 17.8724 9.0813 18.5997 9.85788 19.698C10.3416 20.367 10.6058 21.1791 10.6118 22.0153C10.6118 23.2058 9.95283 24.6397 8.67114 25.6129C7.64634 26.3921 6.47913 26.7165 4.89864 26.7165C3.67857 26.6925 2.47224 26.4443 1.3356 25.9837C0.950673 25.8224 0.583674 25.6185 0.240989 25.3754C0.217991 25.3584 -0.0157664 25.1854 0.00084624 24.9786C0.0268073 24.8384 0.095298 24.7105 0.196312 24.6136C0.544641 24.2651 0.918033 23.9445 1.31326 23.6548C1.35441 23.6247 1.40266 23.6067 1.45288 23.6027C1.50198 23.5992 1.55111 23.6091 1.59529 23.6316C3.33492 24.5991 4.57752 24.912 5.46549 24.912C6.70251 24.912 7.6575 24.2023 7.73568 23.2319C7.76193 22.9984 7.74069 22.7617 7.67337 22.5372C7.60602 22.3127 7.49409 22.1053 7.34475 21.9284C6.9162 21.4911 6.42672 21.1229 5.89272 20.8364C5.1471 20.4013 4.40148 20.0269 3.73893 19.6942C3.40899 19.5285 3.09963 19.3732 2.82113 19.2259C2.29999 18.9616 1.82747 18.6048 1.42495 18.1715C0.880893 17.5095 0.595929 16.6599 0.626337 15.7905C0.626337 13.5108 2.1761 11.2978 5.76987 10.9821C6.36525 10.9352 6.96387 10.9585 7.55418 11.0516C8.34546 11.1843 9.11334 11.4381 9.83277 11.8047Z" fill="#E50040"/>
</svg>
